# xmcd
#
# Track frame offsets: 
#        150
#        12993
#        30022
#        46334
#        62381
#        77167
#        92754
#        108662
#        129676
#        140073
#
# Disc length: 2097 seconds
#
# Revision: 3
# Processed by: cddbd v1.5.2PL0 Copyright (c) Steve Scherf et al.
# Submitted via: ExactAudioCopy v1.0b4
#
DISCID=7c082f0a
DTITLE=Clifton Chenier - I'm Here!
DYEAR=1982
DGENRE=Cajun, Zydeco, Blues
TTITLE0=I'm The Zydeco Man
TTITLE1=Dry Your Eyes
TTITLE2=Zydeco Disco
TTITLE3=I'm Here
TTITLE4=The New Zydeco
TTITLE5=You Got Me Crying
TTITLE6=Going Back Home
TTITLE7=Eighteen Long Years
TTITLE8=In The Mood
TTITLE9=Got To Have Your Love
EXTD=
EXTT0=
EXTT1=
EXTT2=
EXTT3=
EXTT4=
EXTT5=
EXTT6=
EXTT7=
EXTT8=
EXTT9=
PLAYORDER=
